HIERARCHY
ROOT Hips
{
	OFFSET 0.000000 0.000000 0.000000
	CHANNELS 6 Xposition Yposition Zposition Xrotation Yrotation Zrotation
	JOINT LeftUpLeg_virtual
	{
		OFFSET 0.000000 0.000000 0.000000
		CHANNELS 3 Xrotation Yrotation Zrotation
		JOINT LeftUpLeg
		{
			OFFSET 10.205400 -3.823500 0.155100
			CHANNELS 3 Xrotation Yrotation Zrotation
			JOINT LeftLeg
			{
				OFFSET 0.708757 -12.982077 0.567790
				CHANNELS 3 Xrotation Yrotation Zrotation
				JOINT LeftFoot
				{
					OFFSET -0.708756 -10.717838 -2.184338
					CHANNELS 3 Xrotation Yrotation Zrotation
					JOINT LeftToeBase
					{
						OFFSET 0.108149 -7.191104 7.560241
						CHANNELS 3 Xrotation Yrotation Zrotation
						JOINT LeftToe_End
						{
							OFFSET 0.070230 0.081724 4.490308
							CHANNELS 3 Xrotation Yrotation Zrotation
							End Site
							{
								OFFSET 0 0 0
							}
						}
					}
				}
			}
		}
	}
	JOINT RightUpLeg_virtual
	{
		OFFSET 0.000000 0.000000 0.000000
		CHANNELS 3 Xrotation Yrotation Zrotation
		JOINT RightUpLeg
		{
			OFFSET -10.205400 -3.823500 0.005500
			CHANNELS 3 Xrotation Yrotation Zrotation
			JOINT RightLeg
			{
				OFFSET -0.708756 -12.982134 0.610632
				CHANNELS 3 Xrotation Yrotation Zrotation
				JOINT RightFoot
				{
					OFFSET 0.708754 -10.717769 -1.945823
					CHANNELS 3 Xrotation Yrotation Zrotation
					JOINT RightToeBase
					{
						OFFSET -0.108140 -7.191069 7.372968
						CHANNELS 3 Xrotation Yrotation Zrotation
						JOINT RightToe_End
						{
							OFFSET -0.070227 0.081735 4.479403
							CHANNELS 3 Xrotation Yrotation Zrotation
							End Site
							{
								OFFSET 0 0 0
							}
						}
					}
				}
			}
		}
	}
	JOINT Spine_virtual
	{
		OFFSET 0.000000 0.000000 0.000000
		CHANNELS 3 Xrotation Yrotation Zrotation
		JOINT Spine
		{
			OFFSET 0.000000 6.876099 0.125700
			CHANNELS 3 Xrotation Yrotation Zrotation
			JOINT Spine1
			{
				OFFSET 0.000000 5.730043 0.104720
				CHANNELS 3 Xrotation Yrotation Zrotation
				JOINT Spine1_split
				{
					OFFSET 0.000000 5.730043 0.104720
					CHANNELS 3 Xrotation Yrotation Zrotation
					JOINT Spine2
					{
						OFFSET 0.000000 5.730043 0.104720
						CHANNELS 3 Xrotation Yrotation Zrotation
						JOINT Neck_virtual
						{
							OFFSET 0.000000 0.000000 0.000000
							CHANNELS 3 Xrotation Yrotation Zrotation
							JOINT Neck
							{
								OFFSET 0.000000 10.314075 0.188496
								CHANNELS 3 Xrotation Yrotation Zrotation
								JOINT Head
								{
									OFFSET 0.000000 7.643700 -2.377400
									CHANNELS 3 Xrotation Yrotation Zrotation
									JOINT HeadTop_End
									{
										OFFSET 0.000000 43.788605 -13.619600
										CHANNELS 3 Xrotation Yrotation Zrotation
										End Site
										{
											OFFSET 0 0 0
										}
									}
								}
							}
						}
						JOINT LeftShoulder_virtual
						{
							OFFSET 0.000000 0.000000 0.000000
							CHANNELS 3 Xrotation Yrotation Zrotation
							JOINT LeftShoulder
							{
								OFFSET 2.196100 4.412489 0.087492
								CHANNELS 3 Xrotation Yrotation Zrotation
								JOINT LeftShoulder_split
								{
									OFFSET 2.196100 4.412489 0.087492
									CHANNELS 3 Xrotation Yrotation Zrotation
									JOINT LeftArm
									{
										OFFSET 8.771219 -2.981674 -0.026999
										CHANNELS 3 Xrotation Yrotation Zrotation
										JOINT LeftForeArm
										{
											OFFSET 8.512804 0.000000 -0.000000
											CHANNELS 3 Xrotation Yrotation Zrotation
											JOINT LeftHand
											{
												OFFSET 18.484802 0.000000 -0.000000
												CHANNELS 3 Xrotation Yrotation Zrotation
												End Site
												{
													OFFSET 0 0 0
												}
											}
										}
									}
								}
							}
						}
						JOINT RightShoulder_virtual
						{
							OFFSET 0.000000 0.000000 0.000000
							CHANNELS 3 Xrotation Yrotation Zrotation
							JOINT RightShoulder
							{
								OFFSET -2.196100 4.412496 0.070690
								CHANNELS 3 Xrotation Yrotation Zrotation
								JOINT RightShoulder_split
								{
									OFFSET -2.196100 4.412496 0.070690
									CHANNELS 3 Xrotation Yrotation Zrotation
									JOINT RightArm
									{
										OFFSET -8.771282 -2.981682 -0.094208
										CHANNELS 3 Xrotation Yrotation Zrotation
										JOINT RightForeArm
										{
											OFFSET -8.494598 0.000000 0.000000
											CHANNELS 3 Xrotation Yrotation Zrotation
											JOINT RightHand
											{
												OFFSET -18.483803 0.000000 0.000001
												CHANNELS 3 Xrotation Yrotation Zrotation
												End Site
												{
													OFFSET 0 0 0
												}
											}
										}
									}
								}
							}
						}
					}
				}
			}
		}
	}
}
MOTION
Frames: 9
Frame Time: 0.03333333
0.945809 31.301241 -1.119587 0.000000 0.000000 0.000000 -10.889762 -46.489010 -8.301271 -25.452778 -5.977934 19.159779 36.255607 -6.294306 -3.175638 -3.835513 -4.798930 -16.751760 -9.067051 -5.300946 4.249543 0.000000 0.000000 0.000000 -9.997991 -41.302915 -7.366923 4.017677 -17.621654 -13.231501 42.635892 0.134880 -8.649569 -25.258869 -4.175456 19.699869 1.650409 -0.744282 0.479892 0.000000 0.000000 0.000000 -13.675058 -43.075807 -10.257163 7.659530 5.426480 -1.099439 13.233783 9.786500 -4.103762 0.663946 2.548437 0.191513 0.000000 0.000000 0.000000 10.936495 8.834021 -4.463048 -5.799138 -3.562373 3.310868 -12.269908 22.501951 -0.147356 0.000000 0.000000 0.000000 11.829678 9.365853 -4.119602 2.948858 -2.516376 -4.877949 -2.663297 -1.467528 -3.801092 -16.037974 -1.913512 -58.135592 17.541574 -53.968429 8.389606 0.000000 0.000000 0.000000 12.337687 9.480858 -4.171807 0.988956 10.081476 12.028667 0.739919 3.989464 3.904444 3.922439 -19.597918 63.884317 -1.713350 47.670902 3.153198 0.000000 0.000000 0.000000 
0.869433 31.162415 -1.031414 0.000000 0.000000 0.000000 -8.617969 -44.880791 -6.955594 -26.807128 -6.462418 19.559801 35.537413 -5.820303 -3.154384 -3.463275 -5.673452 -15.652796 -7.802006 -5.159586 3.924894 0.000000 0.000000 0.000000 -8.796716 -39.721614 -6.791944 2.810946 -17.954289 -11.969856 42.911237 0.685335 -10.496746 -25.102072 -4.448809 22.370698 1.818652 -0.647928 0.536494 0.000000 0.000000 0.000000 -11.644445 -42.489268 -9.246828 7.807448 5.637241 -1.021585 13.250629 9.791214 -4.142634 -0.055532 1.095630 0.719689 0.000000 0.000000 0.000000 10.636118 8.898317 -4.267754 -5.821477 -3.475519 2.918583 -11.878708 22.657187 0.042733 0.000000 0.000000 0.000000 11.849655 9.312701 -4.195360 2.954194 -2.442930 -5.162956 -2.596626 -1.178821 -3.600056 -12.831851 -1.481912 -57.113130 19.064515 -56.026204 9.049814 0.000000 0.000000 0.000000 12.296116 9.662351 -3.915464 1.203721 10.250837 11.664669 0.787773 4.910859 2.420513 3.210650 -19.894138 62.719394 -0.585856 48.393792 1.970642 0.000000 0.000000 0.000000 
0.679560 30.811943 -1.150688 0.000000 0.000000 0.000000 -5.190373 -42.244754 -5.177997 -31.160406 -6.634251 20.276120 36.205293 -4.798615 -1.975594 -1.543465 -7.324009 -14.498349 -7.578742 -4.999206 3.473249 0.000000 0.000000 0.000000 -5.884218 -36.178406 -5.648674 0.419351 -18.453351 -9.452763 44.625502 1.294194 -13.969798 -24.870404 -4.182168 24.956360 0.985984 -0.373284 0.380609 0.000000 0.000000 0.000000 -8.634652 -40.127904 -8.034008 8.305215 5.475787 -1.227335 13.316749 9.529438 -3.869435 -0.180747 -0.372312 1.233012 0.000000 0.000000 0.000000 10.379931 8.756705 -3.697067 -5.783663 -3.569960 2.229881 -11.168340 22.629786 0.178837 0.000000 0.000000 0.000000 11.950438 9.032527 -3.999410 3.005302 -2.740388 -5.404213 -2.807040 -0.935219 -2.972544 -7.038963 -0.838281 -55.774225 19.094730 -60.914106 8.193358 0.000000 0.000000 0.000000 12.285940 9.650225 -3.364634 1.504478 10.109145 10.842299 1.005939 5.056077 1.701644 3.060122 -18.457225 61.451396 2.615984 49.841574 -1.342160 0.000000 0.000000 0.000000 
0.443879 30.270264 -1.514849 0.000000 0.000000 0.000000 -1.041946 -38.616452 -3.497570 -38.400556 -6.443434 21.152968 38.095886 -3.333820 0.073518 1.356939 -9.660143 -13.220737 -7.537612 -4.752218 3.182563 0.000000 0.000000 0.000000 -1.941947 -31.717510 -4.566813 -3.055141 -19.176443 -5.685937 48.314036 1.252728 -18.798294 -25.512083 -3.767368 26.499022 -0.268352 -0.018761 0.108401 0.000000 0.000000 0.000000 -4.714992 -36.731296 -6.819732 8.893793 5.062790 -1.644971 13.367063 9.059371 -3.362390 0.209115 -1.349234 1.248723 0.000000 0.000000 0.000000 10.277913 8.403317 -2.906915 -5.904019 -3.717588 1.389268 -10.326671 22.552375 0.161598 0.000000 0.000000 0.000000 12.081065 8.614092 -3.581335 3.065767 -3.218774 -5.437018 -2.891441 -1.260291 -1.858921 0.190440 -0.180423 -54.435771 17.732184 -67.713102 6.095870 0.000000 0.000000 0.000000 12.341217 9.436244 -2.669370 1.779032 9.637197 9.732921 1.749027 5.124200 1.699343 3.353546 -15.624317 60.487110 7.657551 51.838680 -6.575538 0.000000 0.000000 0.000000 
0.175361 29.590918 -1.994003 0.000000 0.000000 0.000000 3.506410 -34.418911 -2.342179 -47.581290 -6.014453 22.055289 41.294484 -1.608909 2.618293 5.114957 -12.271390 -11.491915 -6.840654 -4.339860 3.013952 0.000000 0.000000 0.000000 2.547071 -27.189998 -3.797060 -7.625379 -20.389735 -1.020887 54.771225 -0.251049 -24.317727 -26.938270 -3.447227 26.681063 -0.741986 0.416934 -0.301281 0.000000 0.000000 0.000000 -0.347683 -33.017367 -5.862143 9.395572 4.585402 -2.134235 13.379645 8.448798 -2.758544 0.934323 -1.836290 1.035472 0.000000 0.000000 0.000000 10.446443 7.883600 -2.102379 -6.506026 -3.794266 0.530938 -9.639688 22.588820 0.055768 0.000000 0.000000 0.000000 12.272493 8.127212 -3.067776 3.142476 -3.617487 -5.152030 -2.498453 -2.192423 -0.741163 7.227585 0.201421 -53.734929 15.102759 -74.715221 2.855069 0.000000 0.000000 0.000000 12.523545 9.015775 -2.007466 1.983304 8.696882 8.412812 2.895622 5.172565 1.890990 3.865053 -11.869914 60.141120 14.095430 54.038995 -13.329923 0.000000 0.000000 0.000000 
-0.085245 28.801775 -2.535437 0.000000 0.000000 0.000000 8.134722 -30.116083 -1.943134 -57.570462 -5.347957 22.702070 44.769025 0.430914 5.033133 8.702618 -14.606848 -8.696867 -5.995228 -3.777678 3.143706 0.000000 0.000000 0.000000 7.270498 -22.986471 -3.438920 -13.740088 -22.296620 3.861595 64.124808 -3.657171 -29.491350 -28.424502 -3.097643 26.099819 -0.153827 0.891107 -0.980208 0.000000 0.000000 0.000000 4.518173 -29.890947 -5.042363 9.693816 4.290318 -2.539153 13.350766 7.784780 -2.162708 1.737360 -1.605756 0.840661 0.000000 0.000000 0.000000 10.883160 7.313298 -1.435647 -7.950541 -3.845410 -0.285568 -9.338648 22.827841 -0.092949 0.000000 0.000000 0.000000 12.492241 7.644133 -2.493768 3.208213 -3.600494 -4.406075 -2.154421 -3.247974 0.124738 12.973234 -0.211070 -54.157929 12.172965 -79.770182 -0.520547 0.000000 0.000000 0.000000 12.860534 8.454419 -1.516214 2.160675 7.130247 6.862770 4.194637 4.853956 2.211420 3.849883 -8.149440 60.426089 20.871146 55.558883 -20.601601 0.000000 0.000000 0.000000 
-0.246176 27.864426 -3.206144 0.000000 0.000000 0.000000 12.672160 -25.694977 -2.229147 -67.980395 -4.423139 23.079440 47.921222 2.930645 6.857703 11.018389 -16.570532 -5.268637 -5.405660 -3.122145 3.075675 0.000000 0.000000 0.000000 11.733141 -19.348094 -3.539077 -21.761635 -24.835533 8.081368 75.260762 -8.356820 -33.430651 -29.269628 -2.815182 25.999779 0.684341 1.260934 -2.026903 0.000000 0.000000 0.000000 9.483150 -27.544498 -4.406196 9.828660 4.233268 -2.845353 13.309641 7.158986 -1.611717 2.051065 -0.878606 0.868141 0.000000 0.000000 0.000000 11.490555 6.734759 -0.920755 -10.477064 -3.856222 -0.968431 -9.524982 23.138444 -0.082953 0.000000 0.000000 0.000000 12.752875 7.192277 -1.923845 3.262866 -2.958371 -3.162970 -2.448600 -3.886870 0.748966 16.343429 -1.643174 -55.836820 12.517986 -81.848349 -0.264861 0.000000 0.000000 0.000000 13.382852 7.839529 -1.183927 2.304137 4.877976 4.902871 5.542545 4.784313 2.222519 2.469932 -5.208103 61.474469 26.356766 55.756579 -26.912569 0.000000 0.000000 0.000000 
-0.281975 26.758095 -3.824165 0.000000 0.000000 0.000000 16.984664 -21.826179 -2.862992 -78.521316 -3.996735 23.038337 51.512139 5.218217 7.892856 13.144142 -18.582228 -2.564474 -5.692889 -2.442044 2.378309 0.000000 0.000000 0.000000 15.830364 -16.208193 -3.915230 -31.298840 -27.451956 10.972443 86.408054 -13.528133 -35.986320 -29.543686 -2.700050 26.463756 1.378988 1.541743 -3.373254 0.000000 0.000000 0.000000 14.141858 -25.828686 -3.873314 9.825878 4.403723 -3.129234 13.346295 6.564165 -1.086735 1.707056 -0.297177 0.753404 0.000000 0.000000 0.000000 12.152954 6.237874 -0.537106 -14.144676 -3.823310 -1.552842 -10.249601 23.442152 0.311178 0.000000 0.000000 0.000000 13.202737 6.780013 -1.372830 3.321258 -1.635996 -1.442463 -3.202622 -3.447116 0.656018 16.531315 -3.873818 -58.914275 16.386814 -80.530594 4.115573 0.000000 0.000000 0.000000 14.049829 7.240340 -0.941227 2.453903 2.049587 2.406926 6.669695 4.679271 2.049722 -0.153532 -2.627888 63.278301 28.775181 54.399329 -30.459369 0.000000 0.000000 0.000000 
-0.256510 25.488279 -4.345367 0.000000 0.000000 0.000000 20.935211 -18.971028 -3.388792 -88.871034 -4.429612 22.153280 56.135580 6.949148 8.247273 16.242270 -20.652704 -0.745119 -6.376085 -1.818623 1.282813 0.000000 0.000000 0.000000 19.386319 -13.574803 -4.446671 -41.468206 -29.560444 12.555532 95.539423 -18.461650 -37.291105 -29.602928 -2.783617 26.537566 2.037305 1.674243 -4.404620 0.000000 0.000000 0.000000 18.510059 -24.671210 -3.315748 9.681659 4.668660 -3.477514 13.565524 6.052753 -0.574136 0.631080 0.004535 0.700000 0.000000 0.000000 0.000000 12.806922 5.870517 -0.210402 -18.616113 -3.856577 -2.071060 -11.357291 23.456116 1.117592 0.000000 0.000000 0.000000 13.870874 6.463445 -0.825922 3.360129 0.174928 0.469856 -3.954776 -2.419594 0.072617 13.879926 -6.353503 -63.274312 18.389060 -76.467984 7.558165 0.000000 0.000000 0.000000 14.795363 6.764958 -0.710912 2.642900 -1.033131 -0.549523 7.628620 4.489434 2.037204 -3.722938 -0.032255 65.668676 27.879917 52.093255 -30.820190 0.000000 0.000000 0.000000 
